HIERARCHY
ROOT Hips
{
	OFFSET -3.958830 18.904000 13.208200
	CHANNELS 6 Xposition Yposition Zposition Zrotation Yrotation Xrotation 
	JOINT LHipJoint
	{
		OFFSET 0.000000 0.000000 0.000000
		CHANNELS 3 Zrotation Yrotation Xrotation
		JOINT LeftUpLeg
		{
			OFFSET 1.800000 -1.400000 0.085000
			CHANNELS 3 Zrotation Yrotation Xrotation
			JOINT LeftLeg
			{
				OFFSET 2.215000 -6.000000 0.000000
				CHANNELS 3 Zrotation Yrotation Xrotation
				JOINT LeftFoot
				{
					OFFSET 2.500000 -6.900000 0.000000
					CHANNELS 3 Zrotation Yrotation Xrotation
					JOINT LeftToeBase
					{
						OFFSET 0.200000 -0.500000 1.950000
						CHANNELS 3 Zrotation Yrotation Xrotation
						End Site
						{
							OFFSET 0.000000 0.000000 0.000000
						}
					}
				}
			}
		}
	}
	JOINT RHipJoint
	{
		OFFSET 0.000000 0.000000 0.000000
		CHANNELS 3 Zrotation Yrotation Xrotation
		JOINT RightUpLeg
		{
			OFFSET -1.800000 -1.400000 0.085000
			CHANNELS 3 Zrotation Yrotation Xrotation
			JOINT RightLeg
			{
				OFFSET -2.215000 -6.000000 0.000000
				CHANNELS 3 Zrotation Yrotation Xrotation
				JOINT RightFoot
				{
					OFFSET -2.500000 -6.900000 0.000000
					CHANNELS 3 Zrotation Yrotation Xrotation
					JOINT RightToeBase
					{
						OFFSET -0.200000 -0.500000 1.950000
						CHANNELS 3 Zrotation Yrotation Xrotation
						End Site
						{
							OFFSET 0.000000 0.000000 0.000000
						}
					}
				}
			}
		}
	}
	JOINT LowerBack
	{
		OFFSET 0.000000 0.000000 0.000000
		CHANNELS 3 Zrotation Yrotation Xrotation
		JOINT Spine
		{
			OFFSET -0.087000 1.940000 -0.288900
			CHANNELS 3 Zrotation Yrotation Xrotation
			JOINT Spine1
			{
				OFFSET 0.000000 1.950000 0.060000
				CHANNELS 3 Zrotation Yrotation Xrotation
				JOINT Neck
				{
					OFFSET 0.000000 0.000000 0.000000
					CHANNELS 3 Zrotation Yrotation Xrotation
					JOINT Neck1
					{
						OFFSET 0.000000 1.600000 0.340000
						CHANNELS 3 Zrotation Yrotation Xrotation
						JOINT Head
						{
							OFFSET 0.000000 1.667000 -0.240000
							CHANNELS 3 Zrotation Yrotation Xrotation
							End Site
							{
								OFFSET 0.000000 0.000000 0.000000
							}
						}
					}
				}
				JOINT LeftShoulder
				{
					OFFSET 0.000000 0.000000 0.000000
					CHANNELS 3 Zrotation Yrotation Xrotation
					JOINT LeftArm
					{
						OFFSET 2.700000 1.550000 -0.730000
						CHANNELS 3 Zrotation Yrotation Xrotation
						JOINT LeftForeArm
						{
							OFFSET 5.450000 0.000000 0.000000
							CHANNELS 3 Zrotation Yrotation Xrotation
							JOINT LeftHand
							{
								OFFSET 3.450000 0.000000 0.000000
								CHANNELS 3 Zrotation Yrotation Xrotation
								JOINT LeftHandIndex1
								{
									OFFSET 0.750000 0.000000 0.000000
									CHANNELS 3 Zrotation Yrotation Xrotation
									End Site
									{
										OFFSET 0.000000 0.000000 0.000000
									}
								}
							}
						}
					}
				}
				JOINT RightShoulder
				{
					OFFSET 0.000000 0.000000 0.000000
					CHANNELS 3 Zrotation Yrotation Xrotation
					JOINT RightArm
					{
						OFFSET -2.700000 1.550000 -0.730000
						CHANNELS 3 Zrotation Yrotation Xrotation
						JOINT RightForeArm
						{
							OFFSET -5.450000 0.000000 0.000000
							CHANNELS 3 Zrotation Yrotation Xrotation
							JOINT RightHand
							{
								OFFSET -3.450000 0.000000 0.000000
								CHANNELS 3 Zrotation Yrotation Xrotation
								JOINT RightHandIndex1
								{
									OFFSET -0.750000 0.000000 0.000000
									CHANNELS 3 Zrotation Yrotation Xrotation
									End Site
									{
										OFFSET 0.000000 0.000000 0.000000
									}
								}
							}
						}
					}
				}
			}
		}
	}
}
MOTION
Frames: 6
Frame Time: 0.016667
0.662940 17.564880 -3.126550 -0.104383 38.848314 -13.067025 -14.619859 11.056349 2.467849 0.163425 0.447130 2.100862 -9.463319 5.655082 5.638084 0.351753 3.835694 3.407760 -0.081590 -0.235040 -0.317840 19.048585 -12.543299 2.626389 -8.655327 -1.824310 0.877737 4.354238 -5.616303 9.177989 -0.476272 -4.662258 2.863416 -0.310110 0.234580 -0.055640 -7.386135 4.471512 -8.487225 32.034805 -5.320155 16.959264 -22.718643 3.154465 28.032776 7.894857 -14.745960 -21.787424 -26.261813 -1.363397 41.033457 25.596260 -23.079770 -17.250120 -13.126008 -27.253678 17.192567 -65.278222 0.089018 -17.566602 -75.106365 -86.683064 44.158977 -3.110326 3.316059 0.327600 -0.296710 -0.040260 0.145020 2.378734 46.556144 14.318422 15.675743 23.814999 -50.573174 -114.842683 75.423236 -70.330881 4.516693 0.515819 -0.030700 0.127160 0.076690 0.253330 
0.677920 17.566390 -3.119530 -0.173827 38.436207 -12.940894 -14.584216 10.935115 2.432818 0.113141 0.440958 2.152330 -9.630228 5.639223 5.413745 0.362222 3.826078 3.424929 -0.070070 -0.211540 -0.318430 19.107013 -12.596990 2.600520 -8.711540 -1.821558 0.798527 4.278970 -5.614163 9.277304 -0.471807 -4.698993 2.860679 -0.292760 0.250480 -0.061720 -7.478931 4.747270 -8.479831 32.573594 -5.240589 16.067865 -23.325583 3.239973 28.536090 8.087973 -14.690715 -21.410721 -25.694765 -1.393051 40.460546 24.716540 -22.897350 -16.460950 -12.641139 -27.022879 17.165088 -65.706281 0.045591 -17.198926 -84.098957 -87.060819 52.385564 -3.991525 2.076820 0.296630 -0.279930 -0.055000 0.159680 1.639483 46.418748 13.955507 15.456791 24.174532 -50.049910 -115.293736 74.270542 -70.562633 4.468309 0.547271 -0.027160 0.135700 0.063050 0.264960 
0.701040 17.559100 -3.101240 -0.391341 38.490376 -12.939318 -14.573783 10.888162 2.413690 0.243846 0.456354 2.379175 -9.517194 5.592353 5.258524 0.360914 3.823866 3.411541 -0.059510 -0.196070 -0.321860 19.124351 -12.624380 2.590083 -8.841000 -1.767212 0.758502 4.557596 -5.698483 9.487581 -0.473664 -4.745900 2.834608 -0.283450 0.243160 -0.045300 -7.537606 4.913750 -8.452033 33.082853 -4.996238 15.111730 -23.867038 3.362428 28.629124 8.281992 -14.353313 -21.004560 -24.798538 -1.139066 40.579169 24.258680 -22.465960 -15.985820 -12.905831 -26.305208 17.140321 -65.726752 0.799000 -16.899895 -79.667030 -87.519526 48.733428 -3.579568 2.740856 0.287470 -0.273430 -0.054450 0.159380 1.446839 45.485747 13.626207 15.662905 25.391179 -46.848549 -113.564382 70.738234 -70.796081 4.319085 0.347871 -0.013850 0.111860 0.064710 0.265310 
0.721010 17.555220 -3.083590 -0.334944 39.235487 -12.976777 -14.587399 10.863591 2.404888 0.208096 0.517440 2.740814 -9.453947 5.610120 5.287050 0.393419 3.838371 3.413293 -0.047330 -0.174880 -0.328210 19.117674 -12.642078 2.559397 -9.077207 -1.757261 0.867584 4.685966 -5.792816 9.946002 -0.478129 -4.806182 2.822308 -0.278050 0.251990 -0.038420 -7.599789 5.002101 -8.422126 33.154695 -4.879038 14.361167 -23.946649 3.239154 28.867018 8.296866 -14.172439 -20.737807 -24.296555 -1.038482 40.564192 23.973560 -22.534690 -15.073510 -13.306932 -26.152265 17.224050 -65.531308 1.114939 -16.791932 -78.876930 -87.787540 48.380624 -3.512843 2.850975 0.262060 -0.261230 -0.058750 0.178240 1.799909 45.187377 13.548533 15.559203 25.520911 -43.430184 -114.360119 66.470032 -72.300804 4.071210 0.413282 0.002980 0.101690 0.048970 0.280500 
0.724540 17.547610 -3.070050 0.176814 39.423811 -12.703904 -14.583039 10.837081 2.428544 -0.049659 0.600189 3.175957 -9.557112 5.628509 5.077479 0.386110 3.892329 3.400653 -0.054200 -0.192930 -0.329420 19.124507 -12.651840 2.523537 -9.575074 -1.688643 0.691000 4.790762 -5.856272 10.298890 -0.464748 -4.828616 2.811237 -0.276360 0.264010 -0.044390 -7.630221 5.046207 -8.404877 32.769724 -4.656272 14.132938 -24.000397 3.298678 29.068758 8.376284 -14.213271 -20.582739 -24.347648 -0.906959 40.458651 23.975990 -22.611130 -15.007810 -13.227769 -26.123384 17.232864 -65.335096 0.917696 -17.159416 -74.312940 -87.388847 44.407779 -3.076058 3.446100 0.267910 -0.257310 -0.072440 0.175310 1.619268 45.163651 13.487757 15.509300 25.786569 -40.530071 -116.117301 62.716488 -74.492842 3.861287 0.522425 -0.015340 0.113520 0.059640 0.273540 
0.721060 17.540880 -3.058420 0.769942 40.174611 -12.787056 -14.597590 10.772841 2.430283 -0.240010 0.816502 4.158564 -9.742554 5.727856 4.967910 0.453599 3.960832 3.379621 -0.028950 -0.146040 -0.333390 19.126731 -12.641693 2.486145 -10.275328 -1.711327 0.961184 5.194538 -5.994098 10.488417 -0.483664 -4.927337 2.776645 -0.260560 0.265050 -0.033490 -7.694959 5.096614 -8.411640 31.795786 -4.848106 14.189708 -23.577553 2.831173 29.842879 8.408550 -14.312148 -20.353199 -24.102164 -0.730261 39.854393 24.091120 -22.468000 -14.820370 -12.892799 -26.567210 17.427003 -65.518365 0.700871 -17.181450 -75.259597 -88.058983 45.417955 -3.181937 3.337115 0.233680 -0.253790 -0.066550 0.197010 1.416455 45.691164 13.241877 14.881675 24.840531 -39.235613 -118.711142 60.797176 -77.046257 3.798542 0.658456 0.016470 0.097910 0.034860 0.299220 
